# Blender v2.83.3 OBJ File: 'mazes.blend'
# www.blender.org
o 1_3.003
v 1.000000 -1.000000 -1.000000
v -1.000000 1.000000 -1.000000
v 1.000000 1.000000 -1.000000
v 1.000000 -1.000000 1.000000
v -1.000000 -1.000000 -0.950000
v -1.000000 1.000000 -0.950000
v 1.000000 1.000000 -0.950000
v 1.000000 -1.000000 -0.950000
v -1.000000 -1.000000 1.000000
v -1.000000 -1.000000 -1.000000
vn 0.0000 -0.0000 1.0000
vn 1.0000 0.0000 0.0000
vn 0.0000 1.0000 0.0000
vn -1.0000 0.0000 0.0000
vn 0.0000 0.0000 -1.0000
s off
f 5//1 7//1 6//1
f 8//2 3//2 7//2
f 6//3 3//3 2//3
f 5//3 4//3 8//3
f 6//4 10//4 5//4
f 10//5 3//5 1//5
f 5//1 8//1 7//1
f 8//2 1//2 3//2
f 6//3 7//3 3//3
f 5//3 9//3 4//3
f 6//4 2//4 10//4
f 10//5 2//5 3//5
