# Blender v2.83.3 OBJ File: 'mazes.blend'
# www.blender.org
v -0.950000 1.000000 0.950000
v 1.000000 1.000000 1.000000
v 1.000000 1.000000 0.950000
v -1.000000 1.000000 1.000000
v 1.000000 -1.000000 1.000000
v 1.000000 -1.000000 0.950000
v -1.000000 1.000000 -1.000000
v -0.950000 1.000000 -1.000000
v -0.950000 -1.000000 -1.000000
v 1.000000 -1.000000 -1.000000
v -1.000000 -1.000000 -1.000000
v -1.000000 -1.000000 1.000000
v -0.950000 -1.000000 0.950000
vt 0.000000 0.000000
vt 0.000000 0.000000
vt 0.000000 0.000000
vt 0.000000 0.000000
vt 0.000000 0.000000
vt 0.000000 0.000000
vt 0.000000 0.000000
vt 0.000000 0.000000
vt 0.000000 0.000000
vt 0.000000 0.000000
vt 0.000000 0.000000
vt 0.000000 0.000000
vt 0.000000 0.000000
vn 0.0000 1.0000 0.0000
vn 0.0000 -0.0000 1.0000
vn 0.0000 0.0000 -1.0000
vn 1.0000 0.0000 0.0000
vn -1.0000 0.0000 0.0000
s 1
f 1/1/1 2/2/1 3/3/1
f 4/4/2 5/5/2 2/2/2
f 6/6/3 1/1/3 3/3/3
f 7/7/1 1/1/1 8/8/1
f 1/1/4 9/9/4 8/8/4
f 9/9/1 6/6/1 10/10/1
f 11/11/5 4/4/5 7/7/5
f 7/7/1 4/4/1 1/1/1
f 3/3/4 5/5/4 6/6/4
f 7/7/3 9/9/3 11/11/3
f 1/1/1 4/4/1 2/2/1
f 4/4/2 12/12/2 5/5/2
f 6/6/3 13/13/3 1/1/3
f 1/1/4 13/13/4 9/9/4
f 9/9/1 13/13/1 6/6/1
f 11/11/5 12/12/5 4/4/5
f 3/3/4 2/2/4 5/5/4
f 7/7/3 8/8/3 9/9/3
l 13 12
