# Blender v2.83.3 OBJ File: 'mazes.blend'
# www.blender.org
o fence_Cube.002
v 0.092650 0.862683 0.092650
v 0.280882 0.431104 0.280882
v 0.092650 2.063109 0.092650
v 0.879643 2.918252 0.879643
v -0.643508 2.772602 0.793439
v -0.028923 2.150384 0.178854
v 0.028923 2.150384 0.178854
v 0.643508 2.772602 0.793439
v 0.900000 0.200000 0.900000
v 1.000000 1.051841 1.000000
v 0.900000 1.051841 0.900000
v 0.000000 1.107480 0.945767
v 0.000000 1.107480 1.000000
v 0.000000 0.200000 0.922482
v 0.410110 1.009807 0.945767
v 0.410110 0.200000 0.922482
v 0.500000 1.009807 1.000000
v -0.500000 1.009807 1.000000
v -0.410110 1.009807 0.945767
v -0.410110 0.200000 0.922482
v 0.000000 0.000000 1.000000
v -0.500000 0.000000 1.000000
v 0.500000 0.000000 1.000000
v 1.000000 0.000000 1.000000
v -0.507187 0.297077 0.945767
v -0.723143 0.297077 0.945767
v -0.723143 0.887756 0.945767
v -0.507187 0.887756 0.945767
v 0.313033 0.297077 0.945767
v 0.097077 0.297077 0.945767
v 0.097077 0.887756 0.945767
v 0.313033 0.887756 0.945767
v 0.723143 0.297077 0.945767
v 0.507187 0.297077 0.945767
v 0.507187 0.887756 0.945767
v 0.723143 0.887756 0.945767
v -0.097077 0.297077 0.945767
v -0.313033 0.297077 0.945767
v -0.313033 0.887756 0.945767
v -0.097077 0.887756 0.945767
v 0.850000 0.097077 1.000000
v 0.902923 0.912730 1.000000
v 0.597077 0.912730 1.000000
v 0.650000 0.097077 1.000000
v -0.850000 0.097077 1.000000
v -0.650000 0.097077 1.000000
v -0.597077 0.912730 1.000000
v -0.902923 0.912730 1.000000
v -0.402923 0.912730 1.000000
v -0.350000 0.097077 1.000000
v -0.150000 0.097077 1.000000
v -0.097077 0.912730 1.000000
v 0.402923 0.912730 1.000000
v 0.097077 0.912730 1.000000
v 0.150000 0.097077 1.000000
v 0.350000 0.097077 1.000000
v 0.092650 0.862683 -0.092650
v 0.280882 0.431104 -0.280882
v 0.092650 2.063109 -0.092650
v 0.879643 2.918252 -0.879643
v 0.793439 2.772602 0.643508
v 0.178854 2.150384 0.028923
v 0.178854 2.150384 -0.028923
v 0.793439 2.772602 -0.643508
v 0.900000 0.200000 -0.900000
v 1.000000 1.051841 -1.000000
v 0.900000 1.051841 -0.900000
v 0.945767 1.107480 -0.000000
v 1.000000 1.107480 -0.000000
v 0.922482 0.200000 -0.000000
v 0.945767 1.009807 -0.410110
v 0.922482 0.200000 -0.410110
v 1.000000 1.009807 -0.500000
v 1.000000 1.009807 0.500000
v 0.945767 1.009807 0.410110
v 0.922482 0.200000 0.410110
v 1.000000 0.000000 -0.000000
v 1.000000 0.000000 0.500000
v 1.000000 0.000000 -0.500000
v 1.000000 0.000000 -1.000000
v 0.945767 0.297077 0.507187
v 0.945767 0.297077 0.723143
v 0.945767 0.887756 0.723143
v 0.945767 0.887756 0.507187
v 0.945767 0.297077 -0.313033
v 0.945767 0.297077 -0.097077
v 0.945767 0.887756 -0.097077
v 0.945767 0.887756 -0.313033
v 0.945767 0.297077 -0.723143
v 0.945767 0.297077 -0.507187
v 0.945767 0.887756 -0.507187
v 0.945767 0.887756 -0.723143
v 0.945767 0.297077 0.097077
v 0.945767 0.297077 0.313033
v 0.945767 0.887756 0.313033
v 0.945767 0.887756 0.097077
v 1.000000 0.097077 -0.850000
v 1.000000 0.912730 -0.902923
v 1.000000 0.912730 -0.597077
v 1.000000 0.097077 -0.650000
v 1.000000 0.097077 0.850000
v 1.000000 0.097077 0.650000
v 1.000000 0.912730 0.597077
v 1.000000 0.912730 0.902923
v 1.000000 0.912730 0.402923
v 1.000000 0.097077 0.350000
v 1.000000 0.097077 0.150000
v 1.000000 0.912730 0.097077
v 1.000000 0.912730 -0.402923
v 1.000000 0.912730 -0.097077
v 1.000000 0.097077 -0.150000
v 1.000000 0.097077 -0.350000
v -0.092650 0.862683 -0.092650
v -0.280882 0.431104 -0.280882
v -0.092650 2.063109 -0.092650
v -0.879643 2.918252 -0.879643
v 0.643508 2.772602 -0.793439
v 0.028923 2.150384 -0.178854
v -0.028923 2.150384 -0.178854
v -0.643508 2.772602 -0.793439
v -0.900000 0.200000 -0.900000
v -1.000000 1.051841 -1.000000
v -0.900000 1.051841 -0.900000
v -0.000000 1.107480 -0.945767
v -0.000000 1.107480 -1.000000
v -0.000000 0.200000 -0.922482
v -0.410110 1.009807 -0.945767
v -0.410110 0.200000 -0.922482
v -0.500000 1.009807 -1.000000
v 0.500000 1.009807 -1.000000
v 0.410110 1.009807 -0.945767
v 0.410110 0.200000 -0.922482
v -0.000000 0.000000 -1.000000
v 0.500000 0.000000 -1.000000
v -0.500000 0.000000 -1.000000
v -1.000000 0.000000 -1.000000
v 0.507187 0.297077 -0.945767
v 0.723143 0.297077 -0.945767
v 0.723143 0.887756 -0.945767
v 0.507187 0.887756 -0.945767
v -0.313033 0.297077 -0.945767
v -0.097077 0.297077 -0.945767
v -0.097077 0.887756 -0.945767
v -0.313033 0.887756 -0.945767
v -0.723143 0.297077 -0.945767
v -0.507187 0.297077 -0.945767
v -0.507187 0.887756 -0.945767
v -0.723143 0.887756 -0.945767
v 0.097077 0.297077 -0.945767
v 0.313033 0.297077 -0.945767
v 0.313033 0.887756 -0.945767
v 0.097077 0.887756 -0.945767
v -0.850000 0.097077 -1.000000
v -0.902923 0.912730 -1.000000
v -0.597077 0.912730 -1.000000
v -0.650000 0.097077 -1.000000
v 0.850000 0.097077 -1.000000
v 0.650000 0.097077 -1.000000
v 0.597077 0.912730 -1.000000
v 0.902923 0.912730 -1.000000
v 0.402923 0.912730 -1.000000
v 0.350000 0.097077 -1.000000
v 0.150000 0.097077 -1.000000
v 0.097077 0.912730 -1.000000
v -0.402923 0.912730 -1.000000
v -0.097077 0.912730 -1.000000
v -0.150000 0.097077 -1.000000
v -0.350000 0.097077 -1.000000
v -0.092650 0.862683 0.092650
v -0.280882 0.431104 0.280882
v -0.092650 2.063109 0.092650
v -0.879643 2.918252 0.879643
v -0.793439 2.772602 -0.643508
v -0.178854 2.150384 -0.028923
v -0.178854 2.150384 0.028923
v -0.793439 2.772602 0.643508
v -0.900000 0.200000 0.900000
v -1.000000 1.051841 1.000000
v -0.900000 1.051841 0.900000
v -0.945767 1.107480 0.000000
v -1.000000 1.107480 0.000000
v -0.922482 0.200000 0.000000
v -0.945767 1.009807 0.410110
v -0.922482 0.200000 0.410110
v -1.000000 1.009807 0.500000
v -1.000000 1.009807 -0.500000
v -0.945767 1.009807 -0.410110
v -0.922482 0.200000 -0.410110
v -1.000000 0.000000 0.000000
v -1.000000 0.000000 -0.500000
v -1.000000 0.000000 0.500000
v -1.000000 0.000000 1.000000
v -0.945767 0.297077 -0.507187
v -0.945767 0.297077 -0.723143
v -0.945767 0.887756 -0.723143
v -0.945767 0.887756 -0.507187
v -0.945767 0.297077 0.313033
v -0.945767 0.297077 0.097077
v -0.945767 0.887756 0.097077
v -0.945767 0.887756 0.313033
v -0.945767 0.297077 0.723143
v -0.945767 0.297077 0.507187
v -0.945767 0.887756 0.507187
v -0.945767 0.887756 0.723143
v -0.945767 0.297077 -0.097077
v -0.945767 0.297077 -0.313033
v -0.945767 0.887756 -0.313033
v -0.945767 0.887756 -0.097077
v -1.000000 0.097077 0.850000
v -1.000000 0.912730 0.902923
v -1.000000 0.912730 0.597077
v -1.000000 0.097077 0.650000
v -1.000000 0.097077 -0.850000
v -1.000000 0.097077 -0.650000
v -1.000000 0.912730 -0.597077
v -1.000000 0.912730 -0.902923
v -1.000000 0.912730 -0.402923
v -1.000000 0.097077 -0.350000
v -1.000000 0.097077 -0.150000
v -1.000000 0.912730 -0.097077
v -1.000000 0.912730 0.402923
v -1.000000 0.912730 0.097077
v -1.000000 0.097077 0.150000
v -1.000000 0.097077 0.350000
v -0.643508 2.890874 0.793439
v 0.643508 2.890874 0.793439
v 0.793439 2.890874 0.643508
v 0.793439 2.890874 -0.643508
v 0.643508 2.890874 -0.793439
v -0.643508 2.890874 -0.793439
v -0.793439 2.890874 -0.643508
v -0.793439 2.890874 0.643508
vn 0.0000 0.3998 0.9166
vn 0.0000 0.0000 1.0000
vn 0.0000 -0.5093 0.8606
vn 0.0000 -0.7027 0.7115
vn 0.2685 -0.7744 0.5730
vn -0.0735 0.9898 0.1219
vn -0.5166 0.0000 -0.8562
vn 0.0000 -0.9083 0.4183
vn -0.2317 0.9728 0.0000
vn 0.3615 0.0235 0.9321
vn 0.2317 0.9728 0.0000
vn 0.0000 0.9408 0.3389
vn 0.0735 0.9898 0.1219
vn 0.0000 0.2617 0.9651
vn -1.0000 0.0000 0.0000
vn 0.7348 0.0477 0.6767
vn 0.0000 0.2332 -0.9724
vn 0.2505 0.0000 -0.9681
vn 0.0749 -0.1922 -0.9785
vn -0.0361 0.0287 -0.9989
vn 0.2332 0.0000 -0.9724
vn 0.0000 0.0000 -1.0000
vn -0.0427 0.3613 -0.9315
vn -0.2505 0.0000 -0.9681
vn -0.0580 0.0256 -0.9980
vn 0.8041 0.0522 -0.5922
vn -0.5166 0.0000 0.8562
vn -0.2888 0.0000 0.9574
vn 0.3853 0.0250 -0.9224
vn 0.9166 0.3998 0.0000
vn 1.0000 0.0000 -0.0000
vn 0.8606 -0.5093 0.0000
vn 0.7115 -0.7027 -0.0000
vn 0.5730 -0.7744 -0.2685
vn 0.1219 0.9898 0.0735
vn -0.8562 0.0000 0.5166
vn 0.4183 -0.9083 0.0000
vn 0.0000 0.9728 0.2317
vn 0.9321 0.0235 -0.3615
vn 0.0000 0.9728 -0.2317
vn 0.3389 0.9408 0.0000
vn 0.1219 0.9898 -0.0735
vn 0.9651 0.2617 0.0000
vn 0.6767 0.0477 -0.7348
vn -0.9724 0.2333 0.0000
vn -0.9681 0.0000 -0.2505
vn -0.9785 -0.1922 -0.0749
vn -0.9989 0.0287 0.0361
vn -0.9724 0.0000 -0.2332
vn -0.9315 0.3613 0.0427
vn -0.9681 0.0000 0.2505
vn -0.9724 0.2332 0.0000
vn -0.9980 0.0256 0.0580
vn -0.5922 0.0522 -0.8041
vn 0.8562 0.0000 0.5166
vn 0.9574 0.0000 0.2888
vn -0.9224 0.0250 -0.3853
vn 0.0000 0.3998 -0.9166
vn -0.0000 -0.5093 -0.8606
vn -0.0000 -0.7027 -0.7115
vn -0.2685 -0.7744 -0.5730
vn 0.0735 0.9898 -0.1219
vn 0.5166 0.0000 0.8562
vn 0.0000 -0.9083 -0.4183
vn -0.3615 0.0235 -0.9321
vn -0.0000 0.9408 -0.3389
vn -0.0735 0.9898 -0.1219
vn 0.0000 0.2617 -0.9651
vn -0.7348 0.0477 -0.6767
vn 0.0000 0.2332 0.9724
vn -0.2505 0.0000 0.9681
vn -0.0749 -0.1922 0.9785
vn 0.0361 0.0287 0.9989
vn -0.2332 0.0000 0.9724
vn 0.0427 0.3613 0.9315
vn 0.2505 0.0000 0.9681
vn 0.0580 0.0256 0.9980
vn -0.8041 0.0522 0.5922
vn 0.5166 0.0000 -0.8562
vn 0.2888 0.0000 -0.9574
vn -0.3853 0.0250 0.9224
vn -0.9166 0.3998 0.0000
vn -0.8606 -0.5093 0.0000
vn -0.7115 -0.7027 0.0000
vn -0.5730 -0.7744 0.2685
vn -0.1219 0.9898 -0.0735
vn 0.8562 0.0000 -0.5166
vn -0.4183 -0.9083 0.0000
vn -0.9321 0.0235 0.3615
vn -0.3389 0.9408 0.0000
vn -0.1219 0.9898 0.0735
vn -0.9651 0.2617 0.0000
vn -0.6767 0.0477 0.7348
vn 0.9724 0.2333 -0.0000
vn 0.9681 0.0000 0.2505
vn 0.9785 -0.1922 0.0749
vn 0.9989 0.0287 -0.0361
vn 0.9724 0.2332 -0.0000
vn 0.9724 0.0000 0.2332
vn 0.9315 0.3613 -0.0427
vn 0.9681 0.0000 -0.2505
vn 0.9980 0.0256 -0.0580
vn 0.5922 0.0522 0.8041
vn -0.8562 0.0000 -0.5166
vn -0.9574 0.0000 -0.2888
vn 0.9224 0.0250 0.3853
vn 0.4116 0.8131 0.4116
vn -0.4116 0.8131 0.4116
vn -0.4116 0.8131 -0.4116
vn 0.4116 0.8131 -0.4116
vn 0.0000 1.0000 0.0000
vn 0.3027 0.9531 -0.0000
vn -0.0000 0.9531 -0.3027
vn 0.0843 0.9929 -0.0843
vn 0.7071 0.0000 -0.7071
vn 0.0000 0.9531 0.3027
vn 0.0843 0.9929 0.0843
vn 0.7071 0.0000 0.7071
vn -0.3027 0.9531 0.0000
vn -0.0843 0.9929 -0.0843
vn -0.7071 0.0000 -0.7071
vn -0.0843 0.9929 0.0843
vn -0.7071 0.0000 0.7071
vn -0.2685 -0.7744 0.5730
vn -0.0835 0.9930 0.0835
vn -0.3853 0.0250 -0.9224
vn -0.1827 0.9354 -0.3029
vn 0.2888 0.0000 0.9574
vn 0.1827 0.9354 -0.3029
vn 0.0154 0.9417 0.3361
vn -0.0154 0.9417 0.3361
vn 0.0835 0.9930 0.0835
vn -0.8041 0.0522 -0.5922
vn 0.0427 0.3613 -0.9315
vn -0.2332 0.0000 -0.9724
vn 0.0580 0.0256 -0.9980
vn 0.0361 0.0287 -0.9989
vn -0.0749 -0.1922 -0.9785
vn -0.7348 0.0477 0.6767
vn -0.3615 0.0235 0.9321
vn 0.5730 -0.7744 0.2685
vn -0.9224 0.0250 0.3853
vn -0.3029 0.9354 0.1827
vn 0.9574 0.0000 -0.2888
vn -0.3029 0.9354 -0.1827
vn 0.3361 0.9417 -0.0154
vn 0.3361 0.9417 0.0154
vn 0.0835 0.9930 -0.0835
vn -0.5922 0.0522 0.8041
vn -0.9315 0.3613 -0.0427
vn -0.9724 0.0000 0.2332
vn -0.9980 0.0256 -0.0580
vn -0.9989 0.0287 -0.0361
vn -0.9785 -0.1922 0.0749
vn 0.6767 0.0477 0.7348
vn 0.9321 0.0235 0.3615
vn 0.2685 -0.7744 -0.5730
vn 0.3853 0.0250 0.9224
vn 0.1827 0.9354 0.3029
vn -0.2888 0.0000 -0.9574
vn -0.1827 0.9354 0.3029
vn -0.0154 0.9417 -0.3361
vn 0.0154 0.9417 -0.3361
vn -0.0835 0.9930 -0.0835
vn 0.8041 0.0522 0.5922
vn -0.0427 0.3613 0.9315
vn 0.2332 0.0000 0.9724
vn -0.0580 0.0256 0.9980
vn -0.0361 0.0287 0.9989
vn 0.0749 -0.1922 0.9785
vn 0.7348 0.0477 -0.6767
vn 0.3615 0.0235 -0.9321
vn -0.5730 -0.7744 -0.2685
vn 0.9224 0.0250 -0.3853
vn 0.3029 0.9354 -0.1827
vn -0.9574 0.0000 0.2888
vn 0.3029 0.9354 0.1827
vn -0.3361 0.9417 0.0154
vn -0.3361 0.9417 -0.0154
vn 0.5922 0.0522 -0.8041
vn 0.9315 0.3613 0.0427
vn 0.9724 0.0000 -0.2332
vn 0.9980 0.0256 0.0580
vn 0.9989 0.0287 0.0361
vn 0.9785 -0.1922 -0.0749
vn -0.6767 0.0477 -0.7348
vn -0.9321 0.0235 -0.3615
s off
f 169//1 2//1 1//1
f 171//2 1//2 3//2
f 8//3 172//3 5//3
f 5//4 171//4 6//4
f 8//5 3//5 4//5
f 17//6 11//6 15//6
f 6//4 3//4 7//4
f 25//7 47//7 28//7
f 27//8 47//8 48//8
f 19//9 13//9 12//9
f 26//10 48//10 45//10
f 13//11 15//11 12//11
f 20//12 14//12 170//12
f 179//13 18//13 19//13
f 46//14 26//14 45//14
f 39//8 52//8 49//8
f 37//15 52//15 40//15
f 38//16 49//16 50//16
f 51//14 38//14 50//14
f 20//17 26//17 25//17
f 177//18 27//18 26//18
f 19//19 27//19 179//19
f 20//20 28//20 19//20
f 14//17 29//17 16//17
f 14//21 31//21 30//21
f 12//22 32//22 31//22
f 16//20 32//20 15//20
f 16//23 33//23 9//23
f 16//21 35//21 34//21
f 15//22 36//22 35//22
f 9//24 36//24 11//24
f 20//17 37//17 14//17
f 20//21 39//21 38//21
f 12//22 39//22 19//22
f 14//25 40//25 12//25
f 24//2 42//2 41//2
f 10//2 43//2 42//2
f 23//2 43//2 17//2
f 24//2 44//2 23//2
f 192//2 46//2 45//2
f 22//2 47//2 46//2
f 178//2 47//2 18//2
f 192//2 48//2 178//2
f 22//2 49//2 18//2
f 21//2 50//2 22//2
f 21//2 52//2 51//2
f 13//2 49//2 52//2
f 13//2 53//2 17//2
f 21//2 54//2 13//2
f 23//2 55//2 21//2
f 23//2 53//2 56//2
f 32//8 54//8 31//8
f 30//26 54//26 55//26
f 29//14 55//14 56//14
f 29//27 53//27 32//27
f 33//14 44//14 41//14
f 33//28 42//28 36//28
f 34//29 43//29 44//29
f 36//8 43//8 35//8
f 57//30 2//30 58//30
f 3//31 57//31 59//31
f 61//32 60//32 4//32
f 61//33 3//33 62//33
f 64//34 59//34 60//34
f 73//35 67//35 71//35
f 62//33 59//33 63//33
f 81//36 103//36 84//36
f 83//37 103//37 104//37
f 75//38 69//38 68//38
f 82//39 104//39 101//39
f 69//40 71//40 68//40
f 2//41 76//41 70//41
f 11//42 74//42 75//42
f 102//43 82//43 101//43
f 95//37 108//37 105//37
f 93//2 108//2 96//2
f 94//44 105//44 106//44
f 107//43 94//43 106//43
f 76//45 82//45 81//45
f 9//46 83//46 82//46
f 75//47 83//47 11//47
f 76//48 84//48 75//48
f 70//45 85//45 72//45
f 70//49 87//49 86//49
f 68//15 88//15 87//15
f 72//48 88//48 71//48
f 72//50 89//50 65//50
f 72//49 91//49 90//49
f 71//15 92//15 91//15
f 65//51 92//51 67//51
f 76//52 93//52 70//52
f 76//49 95//49 94//49
f 68//15 95//15 75//15
f 70//53 96//53 68//53
f 80//31 98//31 97//31
f 66//31 99//31 98//31
f 79//31 99//31 73//31
f 80//31 100//31 79//31
f 78//31 101//31 24//31
f 78//31 103//31 102//31
f 10//31 103//31 74//31
f 24//31 104//31 10//31
f 78//31 105//31 74//31
f 77//31 106//31 78//31
f 77//31 108//31 107//31
f 69//31 105//31 108//31
f 69//31 109//31 73//31
f 77//31 110//31 69//31
f 79//31 111//31 77//31
f 79//31 109//31 112//31
f 88//37 110//37 87//37
f 86//54 110//54 111//54
f 85//43 111//43 112//43
f 85//55 109//55 88//55
f 89//43 100//43 97//43
f 89//56 98//56 92//56
f 90//57 99//57 100//57
f 92//37 99//37 91//37
f 57//58 114//58 113//58
f 59//22 113//22 115//22
f 120//59 60//59 117//59
f 117//60 59//60 118//60
f 120//61 115//61 116//61
f 129//62 123//62 127//62
f 118//60 115//60 119//60
f 137//63 159//63 140//63
f 139//64 159//64 160//64
f 131//11 125//11 124//11
f 138//65 160//65 157//65
f 125//9 127//9 124//9
f 58//66 132//66 126//66
f 67//67 130//67 131//67
f 158//68 138//68 157//68
f 151//64 164//64 161//64
f 149//31 164//31 152//31
f 150//69 161//69 162//69
f 163//68 150//68 162//68
f 132//70 138//70 137//70
f 65//71 139//71 138//71
f 131//72 139//72 67//72
f 132//73 140//73 131//73
f 126//70 141//70 128//70
f 126//74 143//74 142//74
f 124//2 144//2 143//2
f 128//73 144//73 127//73
f 128//75 145//75 121//75
f 128//74 147//74 146//74
f 127//2 148//2 147//2
f 121//76 148//76 123//76
f 132//70 149//70 126//70
f 132//74 151//74 150//74
f 124//2 151//2 131//2
f 126//77 152//77 124//77
f 136//22 154//22 153//22
f 122//22 155//22 154//22
f 135//22 155//22 129//22
f 135//22 153//22 156//22
f 80//22 158//22 157//22
f 134//22 159//22 158//22
f 66//22 159//22 130//22
f 80//22 160//22 66//22
f 134//22 161//22 130//22
f 133//22 162//22 134//22
f 133//22 164//22 163//22
f 125//22 161//22 164//22
f 125//22 165//22 129//22
f 133//22 166//22 125//22
f 135//22 167//22 133//22
f 135//22 165//22 168//22
f 144//64 166//64 143//64
f 142//78 166//78 167//78
f 141//68 167//68 168//68
f 141//79 165//79 144//79
f 145//68 156//68 153//68
f 145//80 154//80 148//80
f 146//81 155//81 156//81
f 148//64 155//64 147//64
f 169//82 114//82 170//82
f 115//15 169//15 171//15
f 173//83 172//83 116//83
f 173//84 115//84 174//84
f 176//85 171//85 172//85
f 185//86 179//86 183//86
f 174//84 171//84 175//84
f 193//87 215//87 196//87
f 195//88 215//88 216//88
f 187//40 181//40 180//40
f 194//89 216//89 213//89
f 181//38 183//38 180//38
f 114//90 188//90 182//90
f 123//91 186//91 187//91
f 214//92 194//92 213//92
f 207//88 220//88 217//88
f 205//22 220//22 208//22
f 206//93 217//93 218//93
f 219//92 206//92 218//92
f 188//94 194//94 193//94
f 121//95 195//95 194//95
f 187//96 195//96 123//96
f 188//97 196//97 187//97
f 182//98 197//98 184//98
f 182//99 199//99 198//99
f 180//31 200//31 199//31
f 184//97 200//97 183//97
f 184//100 201//100 177//100
f 184//99 203//99 202//99
f 183//31 204//31 203//31
f 177//101 204//101 179//101
f 188//98 205//98 182//98
f 188//99 207//99 206//99
f 180//31 207//31 187//31
f 182//102 208//102 180//102
f 192//15 210//15 209//15
f 178//15 211//15 210//15
f 191//15 211//15 185//15
f 192//15 212//15 191//15
f 190//15 213//15 136//15
f 190//15 215//15 214//15
f 122//15 215//15 186//15
f 136//15 216//15 122//15
f 190//15 217//15 186//15
f 189//15 218//15 190//15
f 189//15 220//15 219//15
f 181//15 217//15 220//15
f 181//15 221//15 185//15
f 189//15 222//15 181//15
f 191//15 223//15 189//15
f 191//15 221//15 224//15
f 200//88 222//88 199//88
f 198//103 222//103 223//103
f 197//92 223//92 224//92
f 197//104 221//104 200//104
f 201//92 212//92 209//92
f 201//105 210//105 204//105
f 202//106 211//106 212//106
f 204//88 211//88 203//88
f 119//107 173//107 174//107
f 64//108 118//108 63//108
f 8//109 62//109 7//109
f 6//110 176//110 5//110
f 63//111 119//111 175//111
f 173//31 232//31 176//31
f 117//2 230//2 120//2
f 5//22 226//22 8//22
f 61//15 228//15 64//15
f 172//112 231//112 116//112
f 226//113 172//113 4//113
f 232//114 172//114 225//114
f 176//115 225//115 5//115
f 230//116 60//116 116//116
f 231//117 230//117 116//117
f 230//118 173//118 120//118
f 60//119 227//119 4//119
f 226//120 4//120 227//120
f 8//121 227//121 61//121
f 229//122 228//122 60//122
f 228//123 117//123 64//123
f 169//1 170//1 2//1
f 171//2 169//2 1//2
f 8//3 4//3 172//3
f 5//124 172//124 171//124
f 8//4 7//4 3//4
f 17//125 10//125 11//125
f 6//4 171//4 3//4
f 25//126 46//126 47//126
f 27//8 28//8 47//8
f 19//127 18//127 13//127
f 26//128 27//128 48//128
f 13//129 17//129 15//129
f 9//130 2//130 16//130
f 2//12 170//12 14//12
f 16//12 2//12 14//12
f 170//131 177//131 20//131
f 179//132 178//132 18//132
f 46//14 25//14 26//14
f 39//8 40//8 52//8
f 37//133 51//133 52//133
f 38//63 39//63 49//63
f 51//14 37//14 38//14
f 20//134 177//134 26//134
f 177//18 179//18 27//18
f 19//22 28//22 27//22
f 20//135 25//135 28//135
f 14//17 30//17 29//17
f 14//136 12//136 31//136
f 12//22 15//22 32//22
f 16//135 29//135 32//135
f 16//17 34//17 33//17
f 16//137 15//137 35//137
f 15//138 11//138 36//138
f 9//24 33//24 36//24
f 20//17 38//17 37//17
f 20//137 19//137 39//137
f 12//22 40//22 39//22
f 14//135 37//135 40//135
f 24//2 10//2 42//2
f 10//2 17//2 43//2
f 23//2 44//2 43//2
f 24//2 41//2 44//2
f 192//2 22//2 46//2
f 22//2 18//2 47//2
f 178//2 48//2 47//2
f 192//2 45//2 48//2
f 22//2 50//2 49//2
f 21//2 51//2 50//2
f 21//2 13//2 52//2
f 13//2 18//2 49//2
f 13//2 54//2 53//2
f 21//2 55//2 54//2
f 23//2 56//2 55//2
f 23//2 17//2 53//2
f 32//8 53//8 54//8
f 30//31 31//31 54//31
f 29//14 30//14 55//14
f 29//139 56//139 53//139
f 33//14 34//14 44//14
f 33//140 41//140 42//140
f 34//79 35//79 43//79
f 36//8 42//8 43//8
f 57//30 1//30 2//30
f 3//31 1//31 57//31
f 61//32 64//32 60//32
f 61//141 4//141 3//141
f 64//33 63//33 59//33
f 73//132 66//132 67//132
f 62//33 3//33 59//33
f 81//142 102//142 103//142
f 83//37 84//37 103//37
f 75//143 74//143 69//143
f 82//144 83//144 104//144
f 69//145 73//145 71//145
f 65//146 58//146 72//146
f 58//41 2//41 70//41
f 2//147 9//147 76//147
f 70//41 72//41 58//41
f 11//148 10//148 74//148
f 102//43 81//43 82//43
f 95//37 96//37 108//37
f 93//149 107//149 108//149
f 94//87 95//87 105//87
f 107//43 93//43 94//43
f 76//150 9//150 82//150
f 9//46 11//46 83//46
f 75//15 84//15 83//15
f 76//151 81//151 84//151
f 70//52 86//52 85//52
f 70//152 68//152 87//152
f 68//15 71//15 88//15
f 72//151 85//151 88//151
f 72//45 90//45 89//45
f 72//153 71//153 91//153
f 71//154 67//154 92//154
f 65//51 89//51 92//51
f 76//52 94//52 93//52
f 76//153 75//153 95//153
f 68//15 96//15 95//15
f 70//151 93//151 96//151
f 80//31 66//31 98//31
f 66//31 73//31 99//31
f 79//31 100//31 99//31
f 80//31 97//31 100//31
f 78//31 102//31 101//31
f 78//31 74//31 103//31
f 10//31 104//31 103//31
f 24//31 101//31 104//31
f 78//31 106//31 105//31
f 77//31 107//31 106//31
f 77//31 69//31 108//31
f 69//31 74//31 105//31
f 69//31 110//31 109//31
f 77//31 111//31 110//31
f 79//31 112//31 111//31
f 79//31 73//31 109//31
f 88//37 109//37 110//37
f 86//22 87//22 110//22
f 85//43 86//43 111//43
f 85//155 112//155 109//155
f 89//43 90//43 100//43
f 89//156 97//156 98//156
f 90//104 91//104 99//104
f 92//37 98//37 99//37
f 57//58 58//58 114//58
f 59//22 57//22 113//22
f 120//59 116//59 60//59
f 117//157 60//157 59//157
f 120//60 119//60 115//60
f 129//148 122//148 123//148
f 118//60 59//60 115//60
f 137//158 158//158 159//158
f 139//64 140//64 159//64
f 131//159 130//159 125//159
f 138//160 139//160 160//160
f 125//161 129//161 127//161
f 121//162 114//162 128//162
f 114//66 58//66 126//66
f 58//163 65//163 132//163
f 126//66 128//66 114//66
f 67//164 66//164 130//164
f 158//68 137//68 138//68
f 151//64 152//64 164//64
f 149//165 163//165 164//165
f 150//7 151//7 161//7
f 163//68 149//68 150//68
f 132//166 65//166 138//166
f 65//71 67//71 139//71
f 131//2 140//2 139//2
f 132//167 137//167 140//167
f 126//70 142//70 141//70
f 126//168 124//168 143//168
f 124//2 127//2 144//2
f 128//167 141//167 144//167
f 128//70 146//70 145//70
f 128//169 127//169 147//169
f 127//170 123//170 148//170
f 121//76 145//76 148//76
f 132//70 150//70 149//70
f 132//169 131//169 151//169
f 124//2 152//2 151//2
f 126//167 149//167 152//167
f 136//22 122//22 154//22
f 122//22 129//22 155//22
f 135//22 156//22 155//22
f 135//22 136//22 153//22
f 80//22 134//22 158//22
f 134//22 130//22 159//22
f 66//22 160//22 159//22
f 80//22 157//22 160//22
f 134//22 162//22 161//22
f 133//22 163//22 162//22
f 133//22 125//22 164//22
f 125//22 130//22 161//22
f 125//22 166//22 165//22
f 133//22 167//22 166//22
f 135//22 168//22 167//22
f 135//22 129//22 165//22
f 144//64 165//64 166//64
f 142//15 143//15 166//15
f 141//68 142//68 167//68
f 141//171 168//171 165//171
f 145//68 146//68 156//68
f 145//172 153//172 154//172
f 146//27 147//27 155//27
f 148//64 154//64 155//64
f 169//82 113//82 114//82
f 115//15 113//15 169//15
f 173//83 176//83 172//83
f 173//173 116//173 115//173
f 176//84 175//84 171//84
f 185//164 178//164 179//164
f 174//84 115//84 171//84
f 193//174 214//174 215//174
f 195//88 196//88 215//88
f 187//175 186//175 181//175
f 194//176 195//176 216//176
f 181//177 185//177 183//177
f 177//178 170//178 184//178
f 170//90 114//90 182//90
f 114//179 121//179 188//179
f 182//90 184//90 170//90
f 123//125 122//125 186//125
f 214//92 193//92 194//92
f 207//88 208//88 220//88
f 205//180 219//180 220//180
f 206//36 207//36 217//36
f 219//92 205//92 206//92
f 188//181 121//181 194//181
f 121//95 123//95 195//95
f 187//31 196//31 195//31
f 188//182 193//182 196//182
f 182//98 198//98 197//98
f 182//183 180//183 199//183
f 180//31 183//31 200//31
f 184//182 197//182 200//182
f 184//98 202//98 201//98
f 184//184 183//184 203//184
f 183//185 179//185 204//185
f 177//101 201//101 204//101
f 188//98 206//98 205//98
f 188//184 187//184 207//184
f 180//31 208//31 207//31
f 182//182 205//182 208//182
f 192//15 178//15 210//15
f 178//15 185//15 211//15
f 191//15 212//15 211//15
f 192//15 209//15 212//15
f 190//15 214//15 213//15
f 190//15 186//15 215//15
f 122//15 216//15 215//15
f 136//15 213//15 216//15
f 190//15 218//15 217//15
f 189//15 219//15 218//15
f 189//15 181//15 220//15
f 181//15 186//15 217//15
f 181//15 222//15 221//15
f 189//15 223//15 222//15
f 191//15 224//15 223//15
f 191//15 185//15 221//15
f 200//88 221//88 222//88
f 198//2 199//2 222//2
f 197//92 198//92 223//92
f 197//186 224//186 221//186
f 201//92 202//92 212//92
f 201//187 209//187 210//187
f 202//55 203//55 211//55
f 204//88 210//88 211//88
f 119//107 120//107 173//107
f 64//108 117//108 118//108
f 8//109 61//109 62//109
f 6//110 175//110 176//110
f 175//111 6//111 7//111
f 7//111 62//111 175//111
f 62//111 63//111 175//111
f 63//111 118//111 119//111
f 119//111 174//111 175//111
f 173//31 231//31 232//31
f 117//2 229//2 230//2
f 5//22 225//22 226//22
f 61//15 227//15 228//15
f 172//112 232//112 231//112
f 226//113 225//113 172//113
f 176//115 232//115 225//115
f 230//116 229//116 60//116
f 230//118 231//118 173//118
f 60//119 228//119 227//119
f 8//121 226//121 227//121
f 228//123 229//123 117//123
l 177 192
l 9 24
l 65 80
l 121 136
